<svg width="340" height="334" viewBox="0 0 340 334" fill="none" xmlns="http://www.w3.org/2000/svg">
<path d="M11.4551 164.717C11.4551 205.868 28.0959 245.333 57.7168 274.431C87.3376 303.53 127.512 319.877 169.402 319.877C211.293 319.877 251.467 303.53 281.088 274.431C310.709 245.333 327.35 205.868 327.35 164.717C327.35 123.566 310.709 84.1003 281.088 55.0021C251.467 25.904 211.293 9.55684 169.402 9.55684C127.512 9.55684 87.3376 25.904 57.7168 55.0021C28.0959 84.1003 11.4551 123.566 11.4551 164.717Z" fill="#FCD170"/>
<path d="M6.54102 246.26C6.54102 259.919 12.0646 273.019 21.8967 282.678C31.7288 292.336 45.0641 297.762 58.9688 297.762C72.8735 297.762 86.2086 292.336 96.0408 282.678C105.873 273.019 111.396 259.919 111.396 246.26C111.396 232.6 105.873 219.501 96.0408 209.842C86.2086 200.183 72.8735 194.757 58.9688 194.757C45.0641 194.757 31.7288 200.183 21.8967 209.842C12.0646 219.501 6.54102 232.6 6.54102 246.26Z" fill="#60C13D"/>
<path d="M58.9688 301.024C28.2227 301.024 3.2207 276.463 3.2207 246.26C3.2207 216.056 28.2227 191.528 58.9688 191.528C89.7148 191.528 114.717 216.089 114.717 246.26C114.717 276.431 89.7148 301.024 58.9688 301.024ZM58.9688 198.052C31.875 198.052 9.86133 219.677 9.86133 246.26C9.86133 272.843 31.875 294.501 58.9688 294.501C86.0625 294.501 108.076 272.875 108.076 246.26C108.076 219.644 86.0293 198.052 58.9688 198.052Z" fill="black"/>
<path d="M227.441 246.26C227.441 259.919 232.965 273.019 242.797 282.678C252.629 292.336 265.964 297.762 279.869 297.762C293.774 297.762 307.109 292.336 316.941 282.678C326.773 273.019 332.297 259.919 332.297 246.26C332.297 232.6 326.773 219.501 316.941 209.842C307.109 200.183 293.774 194.757 279.869 194.757C265.964 194.757 252.629 200.183 242.797 209.842C232.965 219.501 227.441 232.6 227.441 246.26Z" fill="#60C13D"/>
<path d="M279.869 301.024C249.123 301.024 224.121 276.463 224.121 246.26C224.121 216.056 249.123 191.496 279.869 191.496C310.615 191.496 335.617 216.056 335.617 246.26C335.617 276.463 310.615 301.024 279.869 301.024ZM279.869 198.052C252.775 198.052 230.762 219.677 230.762 246.26C230.762 272.843 252.775 294.501 279.869 294.501C306.963 294.501 328.977 272.875 328.977 246.26C328.977 219.644 306.93 198.052 279.869 198.052ZM58.9687 249.521C58.5703 249.521 58.1719 249.456 57.7734 249.293C56.0801 248.641 55.2168 246.749 55.8809 245.086L119 85.3592C119.498 84.1197 120.727 83.2717 122.088 83.2717H155.623C157.449 83.2717 158.943 84.7395 158.943 86.5334C158.943 88.3273 157.449 89.7951 155.623 89.7951H124.346L62.0566 247.467C61.5586 248.739 60.2969 249.521 58.9687 249.521Z" fill="black"/>
<path d="M200.348 258.23C199.584 258.23 198.854 257.969 198.256 257.48L88.4199 168.924C87.3242 168.044 86.9258 166.609 87.3906 165.304C87.8555 163.999 89.1172 163.151 90.5117 163.151H218.975C220.037 163.151 221 163.64 221.631 164.456L282.525 244.303C283.223 245.249 283.389 246.488 282.924 247.564C282.459 248.641 281.43 249.391 280.234 249.521L200.713 258.23H200.348ZM99.8086 169.675L201.377 251.576L273.727 243.65L217.314 169.675H99.8086ZM259.98 130.11H192.91C191.084 130.11 189.59 128.642 189.59 126.848C189.59 125.054 191.084 123.587 192.91 123.587H259.98C261.807 123.587 263.301 125.054 263.301 126.848C263.301 128.642 261.807 130.11 259.98 130.11Z" fill="black"/>
<path d="M200.348 258.23C200.115 258.23 199.883 258.198 199.684 258.165C197.891 257.806 196.728 256.078 197.094 254.316L224.187 126.163C224.553 124.402 226.312 123.26 228.105 123.619C229.898 123.978 231.061 125.707 230.695 127.468L203.602 255.621C203.27 257.187 201.908 258.23 200.348 258.23Z" fill="black"/>
</svg>
